<?xml version="1.0" standalone="no"?>
<!DOCTYPE svg PUBLIC "-//W3C//DTD SVG 20010904//EN"
 "http://www.w3.org/TR/2001/REC-SVG-20010904/DTD/svg10.dtd">
<svg version="1.0" xmlns="http://www.w3.org/2000/svg"
 width="321.000000pt" height="321.000000pt" viewBox="0 0 321.000000 321.000000"
 preserveAspectRatio="xMidYMid meet">
<metadata>
Created by potrace 1.11, written by Peter Selinger 2001-2013
</metadata>
<g transform="translate(0.000000,321.000000) scale(0.100000,-0.100000)"
fill="#000000" stroke="none">
<path d="M1458 3205 c-1 -1 -27 -6 -57 -9 -413 -49 -830 -292 -1079 -630 -29
-39 -56 -76 -61 -82 -21 -26 -101 -174 -107 -198 -3 -14 -10 -26 -14 -26 -4 0
-11 -12 -15 -27 -3 -16 -13 -41 -20 -58 -25 -56 -74 -233 -81 -290 -2 -16 -7
-50 -11 -75 -10 -57 -10 -326 0 -405 34 -281 168 -593 349 -810 32 -39 177
-184 218 -218 181 -152 478 -296 685 -332 17 -2 41 -7 55 -10 65 -14 147 -20
285 -20 183 0 285 14 440 58 88 26 134 42 164 58 19 10 44 19 53 19 10 0 18 4
18 8 0 4 17 14 38 21 20 8 39 17 42 20 3 3 25 17 50 30 136 73 341 246 428
361 15 19 37 46 50 60 12 14 22 28 22 32 0 3 6 13 13 20 30 31 127 207 168
303 19 45 68 195 64 195 -2 0 0 11 5 26 6 14 12 37 15 52 2 15 9 51 15 81 5
29 8 57 5 61 -3 5 -1 11 3 14 10 6 8 330 -2 396 -4 25 -11 66 -17 91 -6 26
-12 53 -13 60 -29 144 -124 363 -220 508 -253 379 -619 617 -1081 701 -61 11
-397 24 -407 15z"/>
</g>
</svg>
